# xmcd
#
# Track frame offsets: 
#        182
#        13245
#        26350
#        39882
#        51945
#        66360
#        78557
#        91152
#        104750
#        115732
#        127635
#        140350
#
# Disc length: 2036 seconds
#
# Revision: 0
# Processed by: cddbd v1.4PL0 Copyright (c) Steve Scherf et al.
# Submitted via: ExactAudioCopy v0.90a11
#
DISCID=9607f20c
DTITLE=Roy Rogers - All-Time Greatest Hits Disc 1
DYEAR=1900
DGENRE=
TTITLE0=Cool Water
TTITLE1=Along The Navajo Trail
TTITLE2=Rock Me To Sleep In My Saddle
TTITLE3=Tumbling Tumbleweeds
TTITLE4=Blue Prairie
TTITLE5=On The Old Spanish Trail
TTITLE6=Don't Fence Me In
TTITLE7=Home In Oklahoma
TTITLE8=A Gay Ranchero
TTITLE9=The Last Round-Up
TTITLE10=Blue Shadows On The Trail
TTITLE11=Home On The Range
EXTD=
EXTT0=
EXTT1=
EXTT2=
EXTT3=
EXTT4=
EXTT5=
EXTT6=
EXTT7=
EXTT8=
EXTT9=
EXTT10=
EXTT11=
PLAYORDER=
